<svg width="62" height="64" viewBox="0 0 62 64" fill="none" xmlns="http://www.w3.org/2000/svg">
<path d="M61.5969 1.67234L61.5816 1.55436C61.5233 1.40218 61.4336 1.26448 61.3181 1.14988C61.2026 1.03529 61.0638 0.946258 60.9105 0.888374L60.7916 0.87315C60.6771 0.836726 60.5563 0.821254 60.435 0.827476L44.2572 1.89754C43.9517 1.93486 43.6689 2.0862 43.4665 2.32063C43.2641 2.55506 43.1575 2.85487 43.1684 3.15875C43.1793 3.46264 43.3069 3.74764 43.5251 3.95549C43.7434 4.16335 44.0358 4.27835 44.3425 4.27698L57.3615 3.41142L37.1805 23.439C36.9517 23.6661 36.8206 23.9716 36.8161 24.2883C36.8116 24.605 36.9341 24.9069 37.1566 25.1277C37.379 25.3485 37.6833 25.47 38.0024 25.4656C38.3216 25.4611 38.6294 25.331 38.8582 25.1039L59.0392 5.0764L58.1752 18.0216C58.1555 18.3374 58.2625 18.6446 58.4729 18.8758C58.6833 19.1071 58.9798 19.2435 59.2976 19.2553C59.4651 19.2615 59.6331 19.2328 59.7908 19.171C59.9484 19.1091 60.0922 19.0156 60.2129 18.8964C60.4262 18.6837 60.5544 18.4021 60.5728 18.1063L61.6511 2.05147C61.658 1.92212 61.6396 1.79337 61.5969 1.67234Z" fill="white"/>
<path d="M0.403064 62.5816L0.418406 62.6995C0.476733 62.8517 0.566442 62.9894 0.681919 63.104C0.797395 63.2186 0.936152 63.3076 1.0895 63.3655L1.20837 63.3808C1.32292 63.4172 1.44373 63.4326 1.56501 63.4264L17.7428 62.3564C18.0483 62.319 18.3311 62.1677 18.5335 61.9333C18.7359 61.6988 18.8425 61.399 18.8316 61.0952C18.8207 60.7913 18.6931 60.5063 18.4749 60.2984C18.2566 60.0906 17.9642 59.9756 17.6575 59.9769L4.63851 60.8425L24.8195 40.8149C25.0483 40.5878 25.1794 40.2823 25.1839 39.9656C25.1884 39.649 25.0659 39.347 24.8434 39.1262C24.621 38.9054 24.3167 38.7839 23.9976 38.7883C23.6784 38.7928 23.3706 38.9229 23.1418 39.15L2.96078 59.1775L3.82483 46.2323C3.84453 45.9165 3.73747 45.6093 3.52709 45.3781C3.31671 45.1468 3.02017 45.0104 2.70243 44.9986C2.53486 44.9924 2.36686 45.0211 2.20922 45.0829C2.05158 45.1448 1.9078 45.2383 1.78713 45.3575C1.57384 45.5702 1.44555 45.8518 1.42715 46.1476L0.348892 62.2024C0.342033 62.3318 0.360429 62.4605 0.403064 62.5816Z" fill="white"/>
</svg>