<svg width="11" height="18" viewBox="0 0 11 18" fill="none" xmlns="http://www.w3.org/2000/svg">
<path d="M9.70243 0.0662192L7.47362 0.0625C4.96963 0.0625 3.35144 1.78914 3.35144 4.46156V6.48982H1.11047C0.916822 6.48982 0.76001 6.6531 0.76001 6.85449V9.79321C0.76001 9.99461 0.917001 10.1577 1.11047 10.1577H3.35144V17.573C3.35144 17.7744 3.50825 17.9375 3.7019 17.9375H6.62572C6.81937 17.9375 6.97618 17.7742 6.97618 17.573V10.1577H9.5964C9.79004 10.1577 9.94686 9.99461 9.94686 9.79321L9.94793 6.85449C9.94793 6.75779 9.91092 6.66518 9.8453 6.59675C9.77967 6.52832 9.69027 6.48982 9.59729 6.48982H6.97618V4.77044C6.97618 3.94404 7.16554 3.52451 8.20064 3.52451L9.70207 3.52395C9.89554 3.52395 10.0524 3.36068 10.0524 3.15947V0.4307C10.0524 0.229678 9.89572 0.0665911 9.70243 0.0662192Z" fill="#616161"/>
</svg>
