<svg width="30" height="30" viewBox="0 0 30 30" fill="none" xmlns="http://www.w3.org/2000/svg">
<g clip-path="url(#clip0)">
<path fill-rule="evenodd" clip-rule="evenodd" d="M25.0555 16.7939C26.0212 17.7368 27.0404 18.6238 27.9065 19.6618C28.2891 20.123 28.6514 20.5989 28.9285 21.1342C29.3211 21.8951 28.9655 22.7325 28.2832 22.7779L24.042 22.776C22.9482 22.8668 22.0755 22.4264 21.3418 21.6785C20.7546 21.0804 20.2108 20.4438 19.6462 19.8255C19.4147 19.5728 19.1724 19.335 18.883 19.1471C18.304 18.7712 17.8014 18.8863 17.4706 19.4902C17.1336 20.1043 17.0572 20.7844 17.0241 21.4689C16.9786 22.4676 16.6768 22.7302 15.6736 22.7759C13.5296 22.877 11.4949 22.5526 9.60477 21.4711C7.93832 20.5176 6.64607 19.1716 5.52131 17.6478C3.33136 14.6806 1.65431 11.4201 0.147028 8.0683C-0.192248 7.31314 0.0558721 6.90776 0.889093 6.89342C2.27269 6.86654 3.6561 6.86845 5.04133 6.8915C5.60366 6.89973 5.97594 7.22227 6.19307 7.75352C6.94164 9.59414 7.85759 11.3453 9.00733 12.9685C9.31351 13.4007 9.62571 13.8328 10.0703 14.137C10.5621 14.4738 10.9366 14.3622 11.168 13.8143C11.3148 13.4669 11.3791 13.0927 11.4122 12.7206C11.5218 11.4405 11.5363 10.1626 11.344 8.88699C11.226 8.09088 10.7775 7.57551 9.98316 7.42486C9.57779 7.34805 9.63815 7.19721 9.83443 6.96583C10.1753 6.56677 10.496 6.31836 11.1351 6.31836H15.9283C16.6829 6.46729 16.8505 6.80628 16.9538 7.56556L16.9579 12.8898C16.9497 13.1838 17.1047 14.056 17.6341 14.2506C18.0579 14.3891 18.3372 14.0501 18.5914 13.7814C19.739 12.5634 20.5581 11.1239 21.2898 9.63336C21.6146 8.97795 21.8938 8.2973 22.1644 7.61721C22.3649 7.11255 22.6795 6.86424 23.2479 6.87524L27.8611 6.87936C27.9979 6.87936 28.1363 6.88136 28.2688 6.90403C29.0461 7.03651 29.2591 7.37091 29.0191 8.13C28.6408 9.32096 27.9047 10.3134 27.185 11.3105C26.4157 12.375 25.5929 13.4031 24.83 14.4739C24.1291 15.4517 24.1847 15.9446 25.0555 16.7939Z" fill="white"/>
</g>
<defs>
<clipPath id="clip0">
<rect width="29.1125" height="29.1125" fill="white"/>
</clipPath>
</defs>
</svg>
