<svg width="24" height="24" viewBox="0 0 24 24" fill="none" xmlns="http://www.w3.org/2000/svg">
<g clip-path="url(#clip0)">
<path d="M23.9774 7.50987C23.9232 6.28148 23.7246 5.43697 23.44 4.7052C23.1465 3.92843 22.6948 3.233 22.1031 2.65488C21.525 2.06777 20.825 1.61156 20.0572 1.32259C19.3212 1.03803 18.4811 0.839381 17.2527 0.785221C16.0152 0.726475 15.6223 0.712891 12.4835 0.712891C9.3447 0.712891 8.95182 0.726475 7.71885 0.780635C6.49046 0.834794 5.64596 1.03362 4.91436 1.318C4.13742 1.61156 3.44198 2.06318 2.86387 2.65488C2.27675 3.233 1.82072 3.93302 1.53157 4.70079C1.24701 5.43697 1.04837 6.27689 0.994206 7.50528C0.935459 8.74284 0.921875 9.13572 0.921875 12.2745C0.921875 15.4133 0.935459 15.8062 0.989619 17.0392C1.04378 18.2676 1.2426 19.1121 1.52716 19.8438C1.82072 20.6206 2.27675 21.316 2.86387 21.8942C3.44198 22.4813 4.142 22.9375 4.90977 23.2265C5.64596 23.511 6.48587 23.7097 7.71444 23.7638C8.94724 23.8182 9.34029 23.8316 12.4791 23.8316C15.6179 23.8316 16.0108 23.8182 17.2437 23.7638C18.4721 23.7097 19.3166 23.511 20.0482 23.2265C21.6019 22.6258 22.8303 21.3974 23.431 19.8438C23.7154 19.1077 23.9142 18.2676 23.9684 17.0392C24.0226 15.8062 24.0361 15.4133 24.0361 12.2745C24.0361 9.13572 24.0316 8.74284 23.9774 7.50987ZM21.8955 16.9489C21.8458 18.0779 21.6561 18.6876 21.498 19.0941C21.1096 20.1012 20.3102 20.9006 19.3031 21.2891C18.8966 21.4471 18.2825 21.6368 17.1578 21.6863C15.9384 21.7407 15.5727 21.7541 12.4881 21.7541C9.40345 21.7541 9.03315 21.7407 7.81817 21.6863C6.68911 21.6368 6.07941 21.4471 5.67295 21.2891C5.17175 21.1038 4.71553 20.8103 4.34524 20.4264C3.96135 20.0515 3.6678 19.5999 3.48256 19.0987C3.32449 18.6922 3.13484 18.0779 3.08527 16.9534C3.03093 15.7341 3.01753 15.3682 3.01753 12.2835C3.01753 9.19888 3.03093 8.82858 3.08527 7.61377C3.13484 6.48471 3.32449 5.87501 3.48256 5.46855C3.6678 4.96717 3.96135 4.51114 4.34982 4.14066C4.72453 3.75678 5.17616 3.46322 5.67753 3.27816C6.084 3.12009 6.69828 2.93045 7.82276 2.8807C9.04215 2.82654 9.40804 2.81295 12.4925 2.81295C15.5817 2.81295 15.9474 2.82654 17.1624 2.8807C18.2915 2.93045 18.9012 3.12009 19.3076 3.27816C19.8088 3.46322 20.2651 3.75678 20.6354 4.14066C21.0192 4.51555 21.3128 4.96717 21.498 5.46855C21.6561 5.87501 21.8458 6.48912 21.8955 7.61377C21.9497 8.83317 21.9632 9.19888 21.9632 12.2835C21.9632 15.3682 21.9497 15.7295 21.8955 16.9489Z" fill="white"/>
<path d="M12.4836 6.33594C9.20486 6.33594 6.54468 8.99595 6.54468 12.2748C6.54468 15.5537 9.20486 18.2137 12.4836 18.2137C15.7624 18.2137 18.4224 15.5537 18.4224 12.2748C18.4224 8.99595 15.7624 6.33594 12.4836 6.33594ZM12.4836 16.1272C10.3565 16.1272 8.63116 14.4021 8.63116 12.2748C8.63116 10.1476 10.3565 8.42242 12.4836 8.42242C14.6108 8.42242 16.336 10.1476 16.336 12.2748C16.336 14.4021 14.6108 16.1272 12.4836 16.1272Z" fill="white"/>
<path d="M20.0438 6.1013C20.0438 6.86695 19.423 7.48776 18.6572 7.48776C17.8916 7.48776 17.2708 6.86695 17.2708 6.1013C17.2708 5.33548 17.8916 4.71484 18.6572 4.71484C19.423 4.71484 20.0438 5.33548 20.0438 6.1013Z" fill="white"/>
</g>
<defs>
<clipPath id="clip0">
<rect width="23.1187" height="23.1187" fill="white" transform="translate(0.881348 0.712891)"/>
</clipPath>
</defs>
</svg>
