<svg width="23" height="23" viewBox="0 0 23 23" fill="none" xmlns="http://www.w3.org/2000/svg">
<g clip-path="url(#clip0)">
<path d="M16.8476 0.572991L14.0717 0.568359C10.9531 0.568359 8.93771 2.71881 8.93771 6.04719V8.5733H6.14669C5.90551 8.5733 5.71021 8.77665 5.71021 9.02747V12.6875C5.71021 12.9383 5.90573 13.1415 6.14669 13.1415H8.93771V22.3769C8.93771 22.6277 9.13301 22.8309 9.37419 22.8309H13.0157C13.2569 22.8309 13.4522 22.6275 13.4522 22.3769V13.1415H16.7155C16.9567 13.1415 17.152 12.9383 17.152 12.6875L17.1533 9.02747C17.1533 8.90704 17.1072 8.7917 17.0255 8.70647C16.9438 8.62124 16.8324 8.5733 16.7166 8.5733H13.4522V6.43189C13.4522 5.40264 13.688 4.88014 14.9772 4.88014L16.8471 4.87944C17.0881 4.87944 17.2834 4.67609 17.2834 4.4255V1.02694C17.2834 0.776572 17.0883 0.573455 16.8476 0.572991Z" fill="white"/>
</g>
<defs>
<clipPath id="clip0">
<rect width="21.4062" height="22.2625" fill="white" transform="translate(0.793701 0.568359)"/>
</clipPath>
</defs>
</svg>
