<svg width="19" height="19" viewBox="0 0 19 19" fill="none" xmlns="http://www.w3.org/2000/svg">
<g clip-path="url(#clip0)">
<path d="M18.9818 5.83243C18.9383 4.84613 18.7788 4.16806 18.5504 3.5805C18.3147 2.95682 17.952 2.39845 17.4769 1.93426C17.0128 1.46286 16.4507 1.09656 15.8343 0.864536C15.2433 0.636058 14.5688 0.476562 13.5825 0.433076C12.5888 0.385907 12.2734 0.375 9.75315 0.375C7.23295 0.375 6.9175 0.385907 5.92752 0.429393C4.94122 0.472879 4.26315 0.632517 3.67573 0.860854C3.05192 1.09656 2.49354 1.45918 2.02936 1.93426C1.55795 2.39845 1.19179 2.96051 0.959629 3.57696C0.731151 4.16806 0.571655 4.84245 0.528169 5.82874C0.481 6.82241 0.470093 7.13786 0.470093 9.65806C0.470093 12.1783 0.481 12.4937 0.524486 13.4837C0.567972 14.47 0.727609 15.1481 0.956088 15.7356C1.19179 16.3593 1.55795 16.9177 2.02936 17.3819C2.49354 17.8533 3.0556 18.2196 3.67205 18.4516C4.26315 18.6801 4.93754 18.8396 5.92398 18.883C6.91381 18.9267 7.22941 18.9374 9.74961 18.9374C12.2698 18.9374 12.5853 18.9267 13.5752 18.883C14.5615 18.8396 15.2396 18.6801 15.827 18.4516C17.0745 17.9693 18.0608 16.983 18.5431 15.7356C18.7715 15.1445 18.9311 14.47 18.9746 13.4837C19.0181 12.4937 19.029 12.1783 19.029 9.65806C19.029 7.13786 19.0253 6.82241 18.9818 5.83243ZM17.3102 13.4112C17.2703 14.3177 17.118 14.8073 16.9911 15.1336C16.6792 15.9423 16.0374 16.5841 15.2287 16.896C14.9024 17.0229 14.4093 17.1752 13.5063 17.215C12.5272 17.2586 12.2336 17.2694 9.75684 17.2694C7.28012 17.2694 6.9828 17.2586 6.00726 17.215C5.10072 17.1752 4.61118 17.0229 4.28482 16.896C3.8824 16.7473 3.5161 16.5116 3.21878 16.2033C2.91055 15.9023 2.67485 15.5397 2.52612 15.1373C2.3992 14.8109 2.24693 14.3177 2.20713 13.4149C2.1635 12.4358 2.15273 12.142 2.15273 9.66529C2.15273 7.18857 2.1635 6.89125 2.20713 5.91586C2.24693 5.00931 2.3992 4.51977 2.52612 4.19341C2.67485 3.79085 2.91055 3.42469 3.22246 3.12723C3.52332 2.819 3.88594 2.5833 4.28851 2.43471C4.61486 2.30779 5.10808 2.15552 6.01095 2.11557C6.99002 2.07209 7.2838 2.06118 9.76038 2.06118C12.2408 2.06118 12.5344 2.07209 13.5099 2.11557C14.4165 2.15552 14.906 2.30779 15.2324 2.43471C15.6348 2.5833 16.0011 2.819 16.2984 3.12723C16.6067 3.42823 16.8424 3.79085 16.9911 4.19341C17.118 4.51977 17.2703 5.01285 17.3102 5.91586C17.3537 6.89493 17.3646 7.18857 17.3646 9.66529C17.3646 12.142 17.3537 12.4321 17.3102 13.4112Z" fill="#616161"/>
<path d="M9.75319 4.88977C7.12066 4.88977 4.98474 7.02554 4.98474 9.65822C4.98474 12.2909 7.12066 14.4267 9.75319 14.4267C12.3859 14.4267 14.5216 12.2909 14.5216 9.65822C14.5216 7.02554 12.3859 4.88977 9.75319 4.88977ZM9.75319 12.7514C8.04534 12.7514 6.66002 11.3662 6.66002 9.65822C6.66002 7.95023 8.04534 6.56505 9.75319 6.56505C11.4612 6.56505 12.8464 7.95023 12.8464 9.65822C12.8464 11.3662 11.4612 12.7514 9.75319 12.7514Z" fill="#616161"/>
<path d="M15.8235 4.70132C15.8235 5.31607 15.325 5.81453 14.7101 5.81453C14.0954 5.81453 13.5969 5.31607 13.5969 4.70132C13.5969 4.08642 14.0954 3.5881 14.7101 3.5881C15.325 3.5881 15.8235 4.08642 15.8235 4.70132Z" fill="#616161"/>
</g>
<defs>
<clipPath id="clip0">
<rect width="18.5625" height="18.5625" fill="white" transform="translate(0.4375 0.375)"/>
</clipPath>
</defs>
</svg>
