<svg width="28" height="39" viewBox="0 0 28 39" fill="none" xmlns="http://www.w3.org/2000/svg">
<path d="M12.9165 38.355L13.025 38.4376C13.1962 38.5134 13.381 38.5526 13.5677 38.5526C13.7545 38.5526 13.9393 38.5134 14.1104 38.4376L14.219 38.355C14.3413 38.2929 14.4516 38.209 14.5446 38.1072L26.7556 24.3402C26.9722 24.0665 27.0776 23.7192 27.0502 23.3692C27.0228 23.0193 26.8647 22.6932 26.6083 22.4576C26.3519 22.222 26.0164 22.0947 25.6705 22.1017C25.3247 22.1087 24.9945 22.2496 24.7475 22.4954L14.9245 33.5779L14.9245 1.37671C14.9245 1.01158 14.7816 0.661411 14.5271 0.403228C14.2727 0.145046 13.9276 1.56536e-07 13.5677 1.60827e-07C13.2079 1.65118e-07 12.8628 0.145046 12.6083 0.403228C12.3539 0.661411 12.211 1.01158 12.211 1.37671L12.211 33.5779L2.36079 22.4816C2.11936 22.212 1.78246 22.0505 1.42389 22.0324C1.06531 22.0143 0.7143 22.1412 0.447741 22.3852C0.30719 22.514 0.194742 22.6711 0.117632 22.8466C0.0405219 23.022 0.000454226 23.2119 7.90848e-06 23.404C0.000885293 23.7452 0.126597 24.0739 0.352768 24.3264L12.5637 38.0935C12.6636 38.2029 12.7834 38.2917 12.9165 38.355Z" fill="#4182FF"/>
</svg>
