<svg width="56" height="39" viewBox="0 0 56 39" fill="none" xmlns="http://www.w3.org/2000/svg">
<path d="M19.6146 39C19.2473 39.0001 18.8837 38.9281 18.5443 38.7882C18.205 38.6484 17.8967 38.4434 17.637 38.1849L0.853944 21.4792C0.586786 21.2224 0.373691 20.9152 0.227094 20.5755C0.0804967 20.2358 0.00333304 19.8705 0.000105612 19.5008C-0.00312181 19.1311 0.0676515 18.7645 0.208296 18.4224C0.34894 18.0802 0.556639 17.7693 0.819274 17.5079C1.08191 17.2465 1.39422 17.0398 1.73798 16.8998C2.08174 16.7598 2.45007 16.6894 2.82148 16.6926C3.19289 16.6958 3.55993 16.7726 3.9012 16.9185C4.24247 17.0644 4.55112 17.2765 4.80915 17.5424L19.6146 32.279L51.2031 0.837443C51.4618 0.574181 51.7704 0.364611 52.111 0.22087C52.4516 0.0771289 52.8175 0.00207018 53.1874 4.22227e-05C53.5574 -0.00198573 53.9241 0.0690574 54.2663 0.209056C54.6084 0.349054 54.9193 0.555227 55.1809 0.815637C55.4425 1.07605 55.6496 1.38552 55.7902 1.72614C55.9307 2.06676 56.0021 2.43175 56 2.79999C55.9979 3.16823 55.9224 3.53239 55.7779 3.8714C55.6334 4.2104 55.4228 4.51751 55.1583 4.77495L21.5922 38.1849C21.3325 38.4434 21.0242 38.6484 20.6848 38.7882C20.3455 38.9281 19.9819 39.0001 19.6146 39Z" fill="#4182FF"/>
</svg>
