<svg width="28" height="39" viewBox="0 0 28 39" fill="none" xmlns="http://www.w3.org/2000/svg">
<path d="M14.138 0.197692L14.0294 0.115093C13.8582 0.039287 13.6735 0.00015962 13.4867 0.000159628C13.2999 0.000159636 13.1152 0.039287 12.944 0.115093L12.8355 0.197692C12.7131 0.259799 12.6028 0.343742 12.5098 0.445503L0.298889 14.2126C0.0822784 14.4863 -0.0231159 14.8336 0.00425497 15.1835C0.0316259 15.5334 0.189694 15.8595 0.446141 16.0951C0.702588 16.3307 1.03804 16.458 1.38392 16.451C1.72979 16.444 2.05996 16.3032 2.30691 16.0574L12.1299 4.97487L12.1299 37.176C12.1299 37.5412 12.2729 37.8913 12.5273 38.1495C12.7818 38.4077 13.1269 38.5527 13.4867 38.5527C13.8466 38.5527 14.1917 38.4077 14.4461 38.1495C14.7005 37.8913 14.8435 37.5412 14.8435 37.176L14.8435 4.97487L24.6937 16.0711C24.9351 16.3407 25.272 16.5023 25.6306 16.5203C25.9891 16.5384 26.3401 16.4115 26.6067 16.1675C26.7473 16.0388 26.8597 15.8816 26.9368 15.7062C27.0139 15.5307 27.054 15.3408 27.0544 15.1487C27.0536 14.8075 26.9278 14.4788 26.7017 14.2263L14.4907 0.45927C14.3909 0.349807 14.2711 0.260986 14.138 0.197692Z" fill="#4182FF"/>
</svg>
