<svg width="22" height="14" viewBox="0 0 22 14" fill="none" xmlns="http://www.w3.org/2000/svg">
<path d="M21.3457 7.31605L21.3901 7.25988C21.4308 7.1713 21.4518 7.07569 21.4518 6.97904C21.4518 6.88239 21.4308 6.78678 21.3901 6.6982L21.3457 6.64204C21.3123 6.57874 21.2672 6.52166 21.2125 6.47353L13.8131 0.154668C13.666 0.0425776 13.4793 -0.0119614 13.2912 0.00220237C13.1032 0.0163661 12.9279 0.0981625 12.8013 0.230868C12.6746 0.363573 12.6062 0.537162 12.61 0.716143C12.6138 0.895124 12.6894 1.06598 12.8216 1.19377L18.7781 6.27694H1.4709C1.27465 6.27694 1.08645 6.35092 0.94768 6.48258C0.808915 6.61425 0.730957 6.79283 0.730957 6.97904C0.730957 7.16525 0.808915 7.34383 0.94768 7.4755C1.08645 7.60717 1.27465 7.68114 1.4709 7.68114H18.7781L12.8142 12.7784C12.6692 12.9033 12.5824 13.0776 12.5727 13.2632C12.563 13.4487 12.6312 13.6304 12.7624 13.7683C12.8315 13.841 12.916 13.8992 13.0103 13.9391C13.1046 13.979 13.2067 13.9998 13.3099 14C13.4933 13.9995 13.67 13.9345 13.8057 13.8175L21.2051 7.49859C21.2639 7.44692 21.3116 7.38493 21.3457 7.31605Z" fill="#4182FF"/>
</svg>
