<svg width="22" height="14" viewBox="0 0 22 14" fill="none" xmlns="http://www.w3.org/2000/svg">
<path d="M21.5434 7.31605L21.5878 7.25988C21.6286 7.1713 21.6496 7.07569 21.6496 6.97904C21.6496 6.88239 21.6286 6.78678 21.5878 6.6982L21.5434 6.64204C21.51 6.57874 21.4649 6.52166 21.4102 6.47353L14.0108 0.154668C13.8637 0.0425776 13.6771 -0.0119614 13.489 0.00220237C13.3009 0.0163661 13.1256 0.0981625 12.999 0.230868C12.8724 0.363573 12.804 0.537162 12.8077 0.716143C12.8115 0.895124 12.8872 1.06598 13.0193 1.19377L18.9758 6.27694H1.66865C1.47241 6.27694 1.2842 6.35092 1.14543 6.48258C1.00667 6.61425 0.928711 6.79283 0.928711 6.97904C0.928711 7.16525 1.00667 7.34383 1.14543 7.4755C1.2842 7.60717 1.47241 7.68114 1.66865 7.68114H18.9758L13.0119 12.7784C12.867 12.9033 12.7802 13.0776 12.7705 13.2632C12.7608 13.4487 12.829 13.6304 12.9601 13.7683C13.0293 13.841 13.1138 13.8992 13.2081 13.9391C13.3024 13.979 13.4044 13.9998 13.5077 14C13.6911 13.9995 13.8677 13.9345 14.0034 13.8175L21.4028 7.49859C21.4617 7.44692 21.5094 7.38493 21.5434 7.31605Z" fill="white"/>
</svg>
