<svg width="24" height="14" viewBox="0 0 24 14" fill="none" xmlns="http://www.w3.org/2000/svg">
<path fill-rule="evenodd" clip-rule="evenodd" d="M20.1175 8.48425C20.8929 9.24128 21.7113 9.95353 22.4067 10.7869C22.7139 11.1572 23.0048 11.5394 23.2272 11.9692C23.5425 12.5801 23.257 13.2524 22.7092 13.2889L19.3038 13.2874C18.4255 13.3602 17.7249 13.0067 17.1357 12.4062C16.6643 11.9259 16.2276 11.4148 15.7743 10.9184C15.5884 10.7155 15.3939 10.5245 15.1615 10.3736C14.6966 10.0719 14.2931 10.1643 14.0275 10.6491C13.7569 11.1422 13.6955 11.6883 13.669 12.2379C13.6325 13.0398 13.3901 13.2506 12.5846 13.2873C10.8632 13.3685 9.22951 13.108 7.71186 12.2396C6.37384 11.4741 5.33626 10.3934 4.43317 9.16985C2.67482 6.78742 1.32827 4.16952 0.118052 1.47828C-0.15436 0.871937 0.0448608 0.546457 0.71387 0.534937C1.82479 0.513356 2.93556 0.514892 4.04778 0.533401C4.49929 0.540006 4.7982 0.798977 4.97254 1.22553C5.57358 2.7034 6.30902 4.10946 7.23216 5.41277C7.478 5.75975 7.72867 6.10674 8.08564 6.35097C8.48055 6.62138 8.78123 6.53175 8.96701 6.09184C9.0849 5.8129 9.13651 5.51246 9.16308 5.2137C9.25109 4.18588 9.26269 3.15983 9.10832 2.13561C9.01355 1.4964 8.65351 1.0826 8.01568 0.961641C7.6902 0.89997 7.73866 0.778856 7.89625 0.593075C8.16997 0.272663 8.42741 0.0732117 8.94059 0.0732117H12.7891C13.395 0.19279 13.5296 0.464971 13.6125 1.07461L13.6158 5.34956C13.6092 5.58557 13.7337 6.28592 14.1588 6.44213C14.499 6.55333 14.7233 6.28115 14.9274 6.06542C15.8489 5.08744 16.5065 3.93167 17.094 2.73489C17.3548 2.20865 17.579 1.66214 17.7962 1.11609C17.9572 0.710887 18.2098 0.511512 18.6662 0.520344L22.3702 0.523647C22.4801 0.523647 22.5912 0.52526 22.6976 0.543462C23.3217 0.64983 23.4927 0.918325 23.3 1.52781C22.9962 2.48406 22.4053 3.28094 21.8274 4.08151C21.2097 4.93622 20.5491 5.76168 19.9365 6.62146C19.3737 7.40659 19.4184 7.80234 20.1175 8.48425Z" fill="#616161"/>
</svg>
